<svg width="53" height="52" viewBox="0 0 53 52" fill="none" xmlns="http://www.w3.org/2000/svg">
<path d="M43.2742 52H8.7369C8.66028 51.9703 8.58614 51.9209 8.50705 51.911C4.38204 51.3104 1.31239 48.5621 0.284227 44.5384C0.177951 44.1183 0.0939186 43.6907 0 43.2656C0 31.7556 0 20.2456 0 8.73566C0.0296585 8.65905 0.0790893 8.5849 0.0889755 8.50581C0.827966 3.48611 4.82445 0.00370731 9.88122 0.00370731C20.6324 -0.00123577 31.3836 -0.00123577 42.1324 0.00370731C47.7057 0.00617885 52.0037 4.30419 52.0062 9.87504C52.0111 20.6238 52.0111 31.3725 52.0062 42.1212C52.0062 46.7752 49.0552 50.5591 44.5471 51.7158C44.1269 51.8245 43.6993 51.9061 43.2742 52ZM40.9287 28.0013C41.1512 25.9722 41.3687 23.9826 41.5911 21.9362H36.1315C36.1315 20.4681 36.0969 19.0519 36.1438 17.6382C36.1735 16.7237 36.5986 16.2319 37.5032 16.1602C38.8329 16.0564 40.17 16.0761 41.5046 16.044C41.6826 16.0391 41.8605 16.044 42.0582 16.044C42.0582 14.9837 42.0582 14.0025 42.0582 13.0213C42.0582 12.0401 42.0582 11.0367 42.0582 9.92695C39.2654 10.006 36.5319 9.93189 33.8305 10.2013C30.5285 10.5325 28.5686 12.5443 28.1509 15.8389C27.9334 17.5591 27.9976 19.3139 27.9383 21.0514C27.9284 21.3331 27.9383 21.6149 27.9383 21.951H24.8242V28.0137H27.9383V45.967H36.0796V27.9964H40.9287V28.0013Z" fill="#6F2DBD"/>
</svg>
