<svg width="53" height="52" viewBox="0 0 53 52" fill="none" xmlns="http://www.w3.org/2000/svg">
<path d="M26.0135 0.021193C31.2125 0.021193 36.4089 -0.0183332 41.6079 0.0343684C45.8134 0.0738945 49.7529 2.94086 51.2522 6.89347C51.7582 8.22682 51.9927 9.60233 51.9953 11.0174C52.0032 20.9964 52.0085 30.9781 51.9953 40.9571C51.9874 45.832 49.1942 49.8294 44.6171 51.3815C43.4603 51.7741 42.1823 51.9612 40.9596 51.9665C30.978 52.0113 20.9963 52.0033 11.0146 51.9875C5.58636 51.9796 1.20687 48.4038 0.189726 43.1574C0.0421612 42.4038 0.0105403 41.6159 0.00790523 40.8464C-0.00263508 30.9412 0.00527015 21.0333 0 11.1254C0 6.89874 1.78922 3.66287 5.38873 1.45994C7.11734 0.400644 9.03831 -0.00779286 11.07 0.000112375C16.0503 0.0185579 21.0332 0.00538253 26.0161 0.00538253C26.0161 0.0106527 26.0161 0.0159228 26.0161 0.021193H26.0135ZM41.6368 26.003C41.7554 17.613 34.7725 10.4166 26.3455 10.327C17.2729 10.2321 10.5851 16.6854 10.3479 25.5103C10.1082 34.3615 17.0463 41.5395 25.7104 41.637C34.7777 41.7397 41.5104 35.131 41.6395 26.003H41.6368ZM42.0084 11.9396C43.0914 11.9476 44.0242 11.0727 44.0242 10.0424C44.0242 8.83816 43.1757 7.93433 42.0453 7.93169C40.9306 7.93169 40.0084 8.84606 40.0136 9.95016C40.0189 11.0332 40.9175 11.9317 42.0084 11.9396Z" fill="#6F2DBD"/>
<path d="M42.0084 11.9423C40.9175 11.9344 40.019 11.0358 40.0137 9.9528C40.0084 8.8487 40.9333 7.9317 42.0453 7.93433C43.1758 7.93433 44.0243 8.84343 44.0243 10.045C44.0243 11.0753 43.0941 11.9502 42.0084 11.9423Z" fill="white"/>
<path d="M26.0006 38.6014C19.0625 38.6277 13.3654 32.9518 13.3496 26.0004C13.3365 19.0807 19.044 13.3626 25.9769 13.3521C32.9177 13.3415 38.5989 19.0228 38.6042 25.9767C38.6095 32.9518 32.9941 38.575 26.0006 38.6014Z" fill="#6F2DBD"/>
</svg>
