<svg width="52" height="52" viewBox="0 0 52 52" fill="none" xmlns="http://www.w3.org/2000/svg">
<path d="M0.00268116 52C0.48529 50.2345 0.94645 48.556 1.40493 46.8776C2.11007 44.2943 2.8246 41.7137 3.50696 39.1251C3.57533 38.865 3.54181 38.5111 3.41446 38.2778C0.94645 33.7601 -0.195725 28.9152 0.311015 23.8103C1.29366 13.9114 6.34899 6.73127 15.3014 2.39047C19.6194 0.297828 24.2538 -0.435469 28.9847 0.248227C39.6517 1.78989 46.9176 7.71258 50.4313 17.8956C53.7828 27.6068 50.6243 38.5017 42.8423 45.2394C38.9532 48.607 34.4623 50.6648 29.3748 51.3485C24.0514 52.0643 18.9773 51.1608 14.1914 48.7102C13.8093 48.5145 13.4795 48.4729 13.072 48.5815C8.90548 49.6915 4.73627 50.7868 0.565725 51.8847C0.412899 51.9249 0.25471 51.9477 0 51.9973L0.00268116 52ZM6.21761 45.8441C6.33961 45.8253 6.39055 45.8226 6.44015 45.8105C8.85722 45.1805 11.277 44.5611 13.6873 43.9096C14.1257 43.7903 14.4608 43.8452 14.8469 44.0758C19.9304 47.1002 25.3718 47.9823 31.1095 46.5546C42.8235 43.6401 49.7771 31.7264 46.5597 20.0835C43.7163 9.79316 33.6781 3.03127 22.7738 4.66544C17.8525 5.40276 13.6565 7.62812 10.293 11.3067C5.91598 16.0925 4.08073 21.7659 4.72421 28.2074C5.06203 31.5923 6.23102 34.7132 8.10247 37.5579C8.31294 37.877 8.34109 38.1545 8.24189 38.5071C7.5649 40.9295 6.90265 43.3573 6.21761 45.8454V45.8441Z" fill="#6F2DBD"/>
<path d="M12.8308 19.9977C12.871 17.8689 13.7008 16.1127 15.1969 14.6421C15.6983 14.1488 16.2882 13.8914 16.992 13.9061C17.37 13.9142 17.7521 13.9597 18.1261 13.9289C18.7696 13.8766 19.165 14.2024 19.3943 14.7373C20.1517 16.5055 20.9078 18.2764 21.6036 20.0701C21.7175 20.3637 21.621 20.8436 21.444 21.1265C20.9882 21.8571 20.4574 22.5475 19.9077 23.2124C19.5216 23.6803 19.4627 24.0825 19.7857 24.62C21.8811 28.1042 24.7714 30.6486 28.5639 32.1447C29.1685 32.3833 29.4929 32.3217 29.8991 31.8283C30.5519 31.0361 31.2061 30.2424 31.8268 29.4247C32.1687 28.9742 32.5735 28.7758 33.087 29.0171C34.9437 29.8872 36.7937 30.7693 38.6276 31.6822C38.8153 31.7761 38.9855 32.1045 38.9936 32.3297C39.066 34.2454 38.4989 35.8447 36.7937 36.9561C34.6689 38.3409 32.4408 38.4548 30.0707 37.7886C23.9911 36.0793 19.4828 32.2734 15.8578 27.2543C14.6594 25.5946 13.5695 23.8841 13.1056 21.8584C12.9662 21.2485 12.9179 20.6157 12.8281 19.9937L12.8308 19.9977Z" fill="#6F2DBD"/>
</svg>
